<svg width="300" height="300" viewBox="0 0 300 300" fill="none" xmlns="http://www.w3.org/2000/svg">
<path d="M0 0L300 0V300H0L0 0Z" fill="white"/>
<path d="M51.1856 162.28L53.2496 156.856L26.7056 143.56V138.76L47.3456 128.44V132.76L32.4656 140.008C31.9216 140.296 31.4256 140.536 30.9776 140.728C30.5296 140.92 30.1936 141.048 29.9696 141.112C30.1936 141.176 30.5296 141.304 30.9776 141.496C31.4256 141.688 31.9216 141.928 32.4656 142.216L54.5936 153.256L68.2256 117.16H72.7856L55.7456 162.28H51.1856Z" fill="black"/>
<path d="M91.6309 157.384C89.8389 157.384 88.2709 157.112 86.9269 156.568C85.6149 155.992 84.5589 155.192 83.7589 154.168C82.9909 153.144 82.5269 151.928 82.3669 150.52H86.6869C86.8789 151.448 87.3909 152.184 88.2229 152.728C89.0869 153.272 90.2229 153.544 91.6309 153.544H93.6469C95.3429 153.544 96.6069 153.208 97.4389 152.536C98.2709 151.832 98.6869 150.904 98.6869 149.752C98.6869 148.632 98.3029 147.752 97.5349 147.112C96.7989 146.44 95.6949 145.992 94.2229 145.768L90.6709 145.192C88.0789 144.744 86.1429 143.944 84.8629 142.792C83.6149 141.608 82.9909 139.896 82.9909 137.656C82.9909 135.288 83.7429 133.464 85.2469 132.184C86.7509 130.872 89.0069 130.216 92.0149 130.216H93.8389C96.3669 130.216 98.3989 130.808 99.9349 131.992C101.471 133.176 102.399 134.776 102.719 136.792H98.3989C98.2069 135.96 97.7269 135.304 96.9589 134.824C96.1909 134.312 95.1509 134.056 93.8389 134.056H92.0149C90.3829 134.056 89.1829 134.36 88.4149 134.968C87.6789 135.576 87.3109 136.488 87.3109 137.704C87.3109 138.792 87.6309 139.592 88.2709 140.104C88.9109 140.616 89.9189 140.984 91.2949 141.208L94.8469 141.784C97.6949 142.232 99.7589 143.064 101.039 144.28C102.351 145.496 103.007 147.256 103.007 149.56C103.007 151.992 102.223 153.912 100.655 155.32C99.1189 156.696 96.7829 157.384 93.6469 157.384H91.6309Z" fill="black"/>
<path d="M118.924 157.48C116.14 157.48 113.948 156.776 112.348 155.368C110.748 153.928 109.948 151.992 109.948 149.56C109.948 147.096 110.748 145.16 112.348 143.752C113.948 142.344 116.108 141.64 118.828 141.64H126.988V139C126.988 137.368 126.492 136.12 125.5 135.256C124.54 134.36 123.164 133.912 121.372 133.912C119.804 133.912 118.492 134.248 117.436 134.92C116.38 135.56 115.772 136.44 115.612 137.56H111.292C111.58 135.288 112.652 133.48 114.508 132.136C116.364 130.792 118.684 130.12 121.468 130.12C124.508 130.12 126.908 130.904 128.668 132.472C130.428 134.04 131.308 136.168 131.308 138.856V157H127.084V151.96H126.364L127.084 151.24C127.084 153.16 126.332 154.68 124.828 155.8C123.356 156.92 121.388 157.48 118.924 157.48ZM119.98 154.072C122.028 154.072 123.708 153.56 125.02 152.536C126.332 151.512 126.988 150.2 126.988 148.6V144.856H118.924C117.484 144.856 116.348 145.256 115.516 146.056C114.684 146.856 114.268 147.944 114.268 149.32C114.268 150.792 114.764 151.96 115.756 152.824C116.78 153.656 118.188 154.072 119.98 154.072Z" fill="black"/>
<path d="M140.025 157V130.6H144.345V135.64H145.257L144.345 136.648C144.345 134.568 144.969 132.968 146.217 131.848C147.465 130.696 149.193 130.12 151.401 130.12C154.057 130.12 156.169 130.936 157.737 132.568C159.305 134.2 160.089 136.424 160.089 139.24V157H155.769V139.72C155.769 137.832 155.257 136.392 154.233 135.4C153.241 134.376 151.881 133.864 150.153 133.864C148.361 133.864 146.937 134.408 145.881 135.496C144.857 136.584 144.345 138.152 144.345 140.2V157H140.025Z" fill="black"/>
<path d="M168.471 157V153.064H177.831V134.536H169.671V130.6H182.151V153.064H191.031V157H168.471ZM179.511 125.848C178.455 125.848 177.623 125.576 177.015 125.032C176.407 124.488 176.103 123.752 176.103 122.824C176.103 121.864 176.407 121.112 177.015 120.568C177.623 119.992 178.455 119.704 179.511 119.704C180.567 119.704 181.399 119.992 182.007 120.568C182.615 121.112 182.919 121.864 182.919 122.824C182.919 123.752 182.615 124.488 182.007 125.032C181.399 125.576 180.567 125.848 179.511 125.848Z" fill="black"/>
<path d="M210.452 157C208.18 157 206.404 156.392 205.124 155.176C203.876 153.96 203.252 152.248 203.252 150.04V134.536H195.812V130.6H203.252V123.16H207.572V130.6H218.132V134.536H207.572V150.04C207.572 152.056 208.532 153.064 210.452 153.064H217.652V157H210.452Z" fill="black"/>
<path d="M230.497 165.64L234.385 155.368L224.593 130.6H229.393L235.537 146.92C235.761 147.464 235.969 148.12 236.161 148.888C236.353 149.624 236.513 150.248 236.641 150.76C236.769 150.248 236.929 149.624 237.121 148.888C237.313 148.12 237.505 147.464 237.697 146.92L243.457 130.6H248.113L235.105 165.64H230.497Z" fill="black"/>
<path d="M254.814 153.88V149.704L269.694 142.408C270.302 142.12 270.862 141.88 271.374 141.688C271.918 141.464 272.318 141.32 272.574 141.256C272.286 141.192 271.87 141.064 271.326 140.872C270.782 140.648 270.238 140.392 269.694 140.104L254.814 132.76V128.44L275.454 138.76V143.56L254.814 153.88Z" fill="black"/>
</svg>
